<?xml version="1.0" encoding="UTF-8" standalone="no"?>
<!-- Created with Inkscape (http://www.inkscape.org/) -->

<svg
   xmlns:dc="http://purl.org/dc/elements/1.1/"
   xmlns:cc="http://creativecommons.org/ns#"
   xmlns:rdf="http://www.w3.org/1999/02/22-rdf-syntax-ns#"
   xmlns:svg="http://www.w3.org/2000/svg"
   xmlns="http://www.w3.org/2000/svg"
   xmlns:sodipodi="http://sodipodi.sourceforge.net/DTD/sodipodi-0.dtd"
   xmlns:inkscape="http://www.inkscape.org/namespaces/inkscape"
   width="50"
   height="45"
   viewBox="0 0 13.229166 11.90625"
   version="1.1"
   id="svg8"
   inkscape:version="0.92.0 r15299"
   sodipodi:docname="img_user.svg">
  <defs
     id="defs2" />
  <sodipodi:namedview
     id="base"
     pagecolor="#ffffff"
     bordercolor="#666666"
     borderopacity="1.0"
     inkscape:pageopacity="0.0"
     inkscape:pageshadow="2"
     inkscape:zoom="7.9195959"
     inkscape:cx="5.6523115"
     inkscape:cy="18.959143"
     inkscape:document-units="mm"
     inkscape:current-layer="layer1"
     showgrid="true"
     units="px"
     inkscape:window-width="1366"
     inkscape:window-height="705"
     inkscape:window-x="-8"
     inkscape:window-y="-8"
     inkscape:window-maximized="1">
    <inkscape:grid
       type="xygrid"
       id="grid36" />
  </sodipodi:namedview>
  <metadata
     id="metadata5">
    <rdf:RDF>
      <cc:Work
         rdf:about="">
        <dc:format>image/svg+xml</dc:format>
        <dc:type
           rdf:resource="http://purl.org/dc/dcmitype/StillImage" />
        <dc:title></dc:title>
      </cc:Work>
    </rdf:RDF>
  </metadata>
  <g
     inkscape:label="Capa 1"
     inkscape:groupmode="layer"
     id="layer1"
     transform="translate(0,-285.09373)">
    <path
       style="fill:#000000;stroke-width:0.01090844;image-rendering:optimizeQuality"
       d="m 6.2272364,296.99657 c -0.5264451,-0.0332 -1.1293546,-0.15642 -1.6190861,-0.33107 -0.7941053,-0.28321 -1.5376511,-0.74368 -2.1405679,-1.32565 -0.05241,-0.0506 -0.06025,-0.0629 -0.049089,-0.0772 0.011391,-0.0146 0.010816,-0.0151 -0.00399,-0.004 -0.014736,0.0115 -0.030137,1.7e-4 -0.1038967,-0.0764 -0.1357032,-0.14078 -0.2424292,-0.2627 -0.3738901,-0.42712 -0.7611683,-0.95198 -1.21155473,-2.11748 -1.28804223,-3.33316 -0.091013,-1.44654 0.36167623,-2.90435 1.25352633,-4.03677 0.1712638,-0.21746 0.4370645,-0.51481 0.4717734,-0.52776 0.010193,-0.004 0.021638,-0.0152 0.025437,-0.0255 0.0081,-0.0217 0.2219721,-0.21961 0.3896445,-0.36051 0.3429789,-0.28821 0.733875,-0.54245 1.1591207,-0.75389 1.1452809,-0.56944 2.4373476,-0.7541 3.6982037,-0.52853 0.8107396,0.14505 1.6143457,0.47405 2.2963767,0.94014 0.075,0.0512 0.1497843,0.10347 0.1661863,0.11603 0.0164,0.0126 0.062,0.0474 0.101322,0.0774 0.211119,0.16103 0.432202,0.35819 0.643905,0.57423 0.140129,0.143 0.339987,0.36896 0.414549,0.46871 0.01173,0.0157 0.05287,0.0697 0.09137,0.11998 0.291442,0.38051 0.5937,0.91951 0.770022,1.37312 0.07979,0.20528 0.09104,0.23704 0.144811,0.40904 0.117474,0.37575 0.193724,0.74262 0.243708,1.17258 0.02123,0.18257 0.02474,0.26756 0.0248,0.59992 0,0.38737 -0.0042,0.45678 -0.04857,0.80312 -0.0624,0.48624 -0.228549,1.09885 -0.407894,1.50387 -0.008,0.018 -0.03043,0.0695 -0.04984,0.11453 -0.110306,0.25514 -0.285406,0.57489 -0.46293,0.84535 -0.469397,0.71512 -1.070115,1.30736 -1.796857,1.77152 -0.170463,0.10888 -0.3502718,0.21136 -0.3402695,0.19394 0.00411,-0.007 -0.00436,-0.002 -0.018855,0.0105 -0.042399,0.0379 -0.3783906,0.20158 -0.5826714,0.28392 -0.7070634,0.28498 -1.3925376,0.42299 -2.1545582,0.43378 -0.1710007,0.002 -0.3751446,3.7e-4 -0.4536531,-0.005 z m -2.491819,-0.77834 c 0,-0.002 -0.013502,-0.0155 -0.029998,-0.03 l -0.030004,-0.0264 0.026446,0.03 c 0.024717,0.0281 0.033555,0.035 0.033556,0.0264 z m -1.2665163,-2.42397 c 0.194535,-0.12713 0.5452641,-0.29808 0.9719694,-0.47376 0.1050007,-0.0433 0.2768199,-0.11473 0.3818206,-0.15889 0.1050001,-0.0442 0.296456,-0.11992 0.4254567,-0.16836 0.1290008,-0.0485 0.2689112,-0.1079 0.3109112,-0.13214 0.049258,-0.0284 0.127221,-0.0931 0.2196582,-0.18237 0.078812,-0.0761 0.244198,-0.2359 0.3675247,-0.35516 l 0.2242302,-0.21686 -0.015256,-0.0395 c -0.00839,-0.0217 -0.0574,-0.15727 -0.1089061,-0.30126 -0.051509,-0.14398 -0.1026591,-0.28632 -0.1136703,-0.31632 -0.01101,-0.03 -0.032236,-0.0889 -0.047172,-0.1309 -0.080778,-0.22717 -0.073924,-0.2151 -0.1424492,-0.25087 -0.1493163,-0.0779 -0.2868785,-0.27085 -0.3658902,-0.51309 -0.050359,-0.1544 -0.060809,-0.21851 -0.061273,-0.37589 -3.708e-4,-0.12901 0.00254,-0.15365 0.023434,-0.19892 0.017029,-0.0368 0.034928,-0.0569 0.06246,-0.0701 0.029816,-0.0142 0.037445,-0.0235 0.03353,-0.0411 -0.012443,-0.0557 -0.052198,-0.30666 -0.066645,-0.42078 -0.045205,-0.35711 -0.060743,-0.78077 -0.036985,-1.00837 0.013991,-0.13403 0.047486,-0.3048 0.078208,-0.39873 0.1087246,-0.33242 0.420851,-0.66058 0.8138624,-0.85567 0.362314,-0.17984 0.7074536,-0.25957 1.1317133,-0.26142 0.2386049,-0.001 0.3259565,0.005 0.4909117,0.0321 0.4780203,0.0794 0.9041643,0.28309 1.1891787,0.56842 0.3327879,0.33315 0.4448656,0.68167 0.4274639,1.32923 -0.00587,0.2174 -0.035484,0.56004 -0.061812,0.71445 -0.00563,0.033 -0.017736,0.10662 -0.026906,0.16362 -0.00918,0.057 -0.018928,0.11634 -0.02168,0.13189 -0.00418,0.0235 0.00115,0.0312 0.031189,0.0455 0.024421,0.0116 0.044618,0.0344 0.06211,0.0699 0.023652,0.048 0.025872,0.066 0.025382,0.20536 -4.664e-4,0.13059 -0.00496,0.17008 -0.031238,0.27269 -0.075018,0.29322 -0.2272452,0.53063 -0.3894988,0.60744 -0.069612,0.033 -0.046826,-0.0154 -0.2339135,0.49696 -0.021353,0.0585 -0.060425,0.16526 -0.086817,0.23725 -0.026393,0.072 -0.06247,0.17109 -0.080171,0.22023 l -0.032181,0.0893 0.2514645,0.24335 c 0.4771923,0.4618 0.5027348,0.48475 0.5859695,0.52667 0.039398,0.0198 0.1796013,0.0765 0.311559,0.12598 0.1319569,0.0495 0.2767399,0.10599 0.3217408,0.12565 0.045,0.0197 0.1726371,0.0734 0.2836379,0.11931 0.7596343,0.31456 1.0744023,0.47353 1.3206453,0.66697 0.05662,0.0445 0.06772,0.0494 0.08079,0.036 0.03744,-0.0385 0.247363,-0.40566 0.339395,-0.59368 0.335359,-0.68517 0.507361,-1.38335 0.534745,-2.17063 0.01089,-0.31364 -0.01887,-0.70884 -0.07876,-1.04471 -0.02819,-0.1582 -0.02837,-0.16164 -0.0082,-0.18543 0.02032,-0.0241 0.02032,-0.0241 -0.0018,-0.005 -0.02165,0.0182 -0.02238,0.017 -0.04162,-0.0709 -0.114964,-0.52555 -0.360735,-1.12682 -0.645149,-1.57832 -0.01325,-0.021 -0.04573,-0.0724 -0.07217,-0.11434 -0.154205,-0.24404 -0.368515,-0.51371 -0.628618,-0.791 -0.0197,-0.021 -0.03343,-0.0446 -0.03051,-0.0524 0.0029,-0.008 3.3e-4,-0.0111 -0.0058,-0.007 -0.0061,0.004 -0.06618,-0.044 -0.133512,-0.10623 -0.3780321,-0.34919 -0.7841957,-0.63927 -1.1642499,-0.83152 -0.057002,-0.0288 -0.1085462,-0.056 -0.1145456,-0.0604 -0.016333,-0.012 -0.2928163,-0.13536 -0.3927297,-0.17523 -0.048,-0.0192 -0.1805468,-0.0657 -0.2945476,-0.1035 -0.8815154,-0.29205 -1.820264,-0.34276 -2.7455392,-0.14831 l -0.094614,0.0199 c 0,0 0,0 -0.00973,0.002 l -0.047794,0.0123 c -0.6572116,0.16908 -1.2099088,0.41953 -1.7441658,0.79036 -1.0382004,0.72062 -1.7963538,1.81799 -2.0975681,3.03609 -0.039748,0.16075 -0.048871,0.18635 -0.062171,0.17447 -0.013302,-0.0119 -0.013538,-0.0112 -0.00163,0.005 0.011542,0.0153 0.0082,0.0532 -0.019273,0.21816 -0.1937008,1.16319 -0.00853,2.31054 0.5400853,3.34644 0.063958,0.12076 0.1554544,0.27599 0.2548596,0.43239 0.014621,0.023 0.015583,0.0227 0.081144,-0.0286 0.036488,-0.0285 0.1174166,-0.0853 0.1798367,-0.12609 z m -1.0462246,0.10963 c -0.00747,-0.009 -0.016036,-0.0164 -0.019037,-0.0164 -0.00302,0 6.654e-4,0.007 0.00813,0.0164 0.00747,0.009 0.016036,0.0164 0.019037,0.0164 0.00302,0 -6.654e-4,-0.007 -0.00813,-0.0164 z m -0.031334,-1.5298 c 0.013568,-0.0173 0.013181,-0.0177 -0.00411,-0.004 -0.018172,0.0143 -0.023949,0.0232 -0.014971,0.0232 0.00224,0 0.010858,-0.009 0.019091,-0.0191 z m 0.058611,-0.0573 c 0.010858,-0.012 0.017288,-0.0218 0.014288,-0.0218 -0.00302,0 -0.014336,0.01 -0.025201,0.0218 -0.010858,0.012 -0.017289,0.0218 -0.014288,0.0218 0.00302,0 0.014342,-0.01 0.025201,-0.0218 z m -0.038183,-2.39235 c 0,-0.002 -0.013502,-0.0154 -0.029998,-0.03 l -0.029998,-0.0264 0.026447,0.03 c 0.024717,0.0281 0.033555,0.035 0.033555,0.0264 z"
       id="path32"
       inkscape:connector-curvature="0"
       sodipodi:nodetypes="cscccccssscssssssscccccccccccccscccsccsscccscssccscccccccccssscssscsccccscccccccccsccsccccsccsccsccscsccsscccsccccccscscccsccsssssscccs" />
  </g>
</svg>
