<?xml version="1.0" encoding="UTF-8" standalone="no"?>
<!-- Created with Inkscape (http://www.inkscape.org/) -->

<svg
   xmlns:dc="http://purl.org/dc/elements/1.1/"
   xmlns:cc="http://creativecommons.org/ns#"
   xmlns:rdf="http://www.w3.org/1999/02/22-rdf-syntax-ns#"
   xmlns:svg="http://www.w3.org/2000/svg"
   xmlns="http://www.w3.org/2000/svg"
   xmlns:sodipodi="http://sodipodi.sourceforge.net/DTD/sodipodi-0.dtd"
   xmlns:inkscape="http://www.inkscape.org/namespaces/inkscape"
   width="50"
   height="40"
   viewBox="0 0 13.229166 10.583334"
   version="1.1"
   id="svg8"
   inkscape:version="0.92.0 r15299"
   sodipodi:docname="img_true.svg">
  <defs
     id="defs2" />
  <sodipodi:namedview
     id="base"
     pagecolor="#ffffff"
     bordercolor="#666666"
     borderopacity="1.0"
     inkscape:pageopacity="0.0"
     inkscape:pageshadow="2"
     inkscape:zoom="14.481547"
     inkscape:cx="29.484868"
     inkscape:cy="20.975399"
     inkscape:document-units="mm"
     inkscape:current-layer="g52"
     showgrid="false"
     units="px"
     inkscape:window-width="1366"
     inkscape:window-height="705"
     inkscape:window-x="-8"
     inkscape:window-y="-8"
     inkscape:window-maximized="1" />
  <metadata
     id="metadata5">
    <rdf:RDF>
      <cc:Work
         rdf:about="">
        <dc:format>image/svg+xml</dc:format>
        <dc:type
           rdf:resource="http://purl.org/dc/dcmitype/StillImage" />
        <dc:title></dc:title>
      </cc:Work>
    </rdf:RDF>
  </metadata>
  <g
     inkscape:label="Capa 1"
     inkscape:groupmode="layer"
     id="layer1"
     transform="translate(0,-286.41665)">
    <g
       id="g23"
       transform="translate(47.173072,-0.80180858)">
      <g
         id="g52"
         transform="translate(-27.30878,-8.1264881)">
        <path
           style="fill:#008000;stroke-width:0.04988619"
           d="m -14.929604,304.29413 c -0.414109,-0.11497 -0.569026,-0.23713 -1.646244,-1.29911 -1.145583,-1.12928 -1.86336,-1.70854 -2.693853,-2.17403 -0.570012,-0.31948 -0.527561,-0.28816 -0.469366,-0.34634 0.07154,-0.0716 0.90815,0.0353 1.405732,0.17939 0.93714,0.27159 2.131736,0.79182 2.952454,1.28575 0.204507,0.12312 0.387993,0.21379 0.407734,0.20153 0.01972,-0.012 0.197582,-0.2857 0.395172,-0.60776 0.774596,-1.26248 1.199218,-1.82449 1.98418,-2.62615 0.806725,-0.82386 1.719743,-1.556 2.210497,-1.77255 0.234713,-0.10365 1.0701997,-0.24001 1.1263282,-0.18397 0.019239,0.0192 -0.1584774,0.22991 -0.3936948,0.4691 -0.9901894,1.00661 -1.7991994,2.17499 -2.6857654,3.87887 -0.329414,0.63304 -0.380204,0.82133 -0.221484,0.82133 0.03631,0 0.183969,-0.19646 0.328186,-0.43649 0.748649,-1.247 1.380639,-2.09203 2.120823,-2.83578 0.7652172,-0.7689 1.8173318,-1.59375 2.2382978,-1.75481 0.1815649,-0.0695 0.9408187,-0.18013 1.0306633,-0.15005 0.038717,0.012 -0.1236084,0.21835 -0.4082684,0.51657 -1.2398357,1.29852 -1.9186959,2.34875 -3.2394787,5.0116 -0.928506,1.87199 -0.971984,1.92429 -1.562035,1.87942 -0.556767,-0.0423 -0.793089,-0.1414 -1.30176,-0.54538 l -0.143088,-0.11376 -0.106296,0.14936 c -0.05844,0.0822 -0.187816,0.23374 -0.287569,0.33673 -0.173388,0.1794 -0.194792,0.18711 -0.49886,0.18278 -0.174591,-0.002 -0.418688,-0.0324 -0.542156,-0.0669 z"
           id="path64"
           inkscape:connector-curvature="0" />
      </g>
    </g>
    <path
       style="fill:#000000;stroke-width:0.26458332"
       d=""
       id="path21"
       inkscape:connector-curvature="0" />
  </g>
</svg>
