<?xml version="1.0" encoding="UTF-8" standalone="no"?>
<!-- Created with Inkscape (http://www.inkscape.org/) -->

<svg
   xmlns:dc="http://purl.org/dc/elements/1.1/"
   xmlns:cc="http://creativecommons.org/ns#"
   xmlns:rdf="http://www.w3.org/1999/02/22-rdf-syntax-ns#"
   xmlns:svg="http://www.w3.org/2000/svg"
   xmlns="http://www.w3.org/2000/svg"
   xmlns:sodipodi="http://sodipodi.sourceforge.net/DTD/sodipodi-0.dtd"
   xmlns:inkscape="http://www.inkscape.org/namespaces/inkscape"
   width="50"
   height="40"
   viewBox="0 0 13.229166 10.583334"
   version="1.1"
   id="svg76"
   inkscape:version="0.92.0 r15299"
   sodipodi:docname="img_false.svg">
  <defs
     id="defs70" />
  <sodipodi:namedview
     id="base"
     pagecolor="#ffffff"
     bordercolor="#666666"
     borderopacity="1.0"
     inkscape:pageopacity="0.0"
     inkscape:pageshadow="2"
     inkscape:zoom="5.6"
     inkscape:cx="-5.0363214"
     inkscape:cy="8.5341866"
     inkscape:document-units="mm"
     inkscape:current-layer="layer1"
     showgrid="false"
     units="px"
     inkscape:window-width="1366"
     inkscape:window-height="705"
     inkscape:window-x="-8"
     inkscape:window-y="-8"
     inkscape:window-maximized="1" />
  <metadata
     id="metadata73">
    <rdf:RDF>
      <cc:Work
         rdf:about="">
        <dc:format>image/svg+xml</dc:format>
        <dc:type
           rdf:resource="http://purl.org/dc/dcmitype/StillImage" />
        <dc:title></dc:title>
      </cc:Work>
    </rdf:RDF>
  </metadata>
  <g
     inkscape:label="Capa 1"
     inkscape:groupmode="layer"
     id="layer1"
     transform="translate(0,-286.41665)">
    <path
       style="fill:#800000;stroke-width:0.02554467"
       d="m 3.3000502,296.35425 c -0.3287593,-0.0856 -1.1826646,-0.63766 -1.4550231,-0.94059 -0.206935,-0.23015 -0.1460605,-0.33059 0.2829614,-0.46687 0.6098806,-0.19374 1.158442,-0.54845 1.7204521,-1.11249 0.1470729,-0.14761 0.27504,-0.26595 0.2843775,-0.26299 0.0093,0.003 0.01546,-0.0143 0.013613,-0.0383 -0.00205,-0.0265 0.011629,-0.0404 0.034956,-0.0352 0.021069,0.005 0.030167,3.8e-4 0.02018,-0.01 -0.00999,-0.01 0.03092,-0.0828 0.090925,-0.16178 0.3188678,-0.41988 0.5258986,-0.91463 0.4892945,-1.16931 -0.013408,-0.0932 -0.042275,-0.1308 -0.2375672,-0.30951 -0.6773015,-0.61976 -1.320318,-1.35482 -1.6364084,-1.87067 -0.1133762,-0.18502 -0.1263186,-0.21848 -0.087505,-0.22626 0.063549,-0.0127 0.1116728,-0.056 0.094079,-0.0844 -0.00889,-0.0144 -0.028115,-0.0128 -0.048089,0.004 -0.033587,0.0279 -0.043164,0.0217 -0.13608,-0.0887 -0.019564,-0.0232 -0.026268,-0.0624 -0.016212,-0.0942 0.013613,-0.0428 0.00862,-0.0511 -0.023327,-0.0388 -0.060334,0.0231 -0.118575,-0.20129 -0.118575,-0.45666 0,-0.34637 0.1357449,-0.73213 0.3731206,-1.06033 0.1517929,-0.20985 0.4755038,-0.49679 0.6595912,-0.58464 0.1895941,-0.0905 0.4095605,-0.1259 0.4956905,-0.0798 0.071826,0.0384 0.1405333,0.17727 0.1936368,0.3913 0.143338,0.57763 0.2825989,0.95887 0.4924275,1.34802 0.2442778,0.45303 0.4679518,0.74143 1.0391213,1.33975 0.192665,0.20183 0.311918,0.23823 0.468239,0.14292 0.08772,-0.0535 0.09123,-0.0579 0.609655,-0.76228 0.214945,-0.29205 0.354938,-0.4607 0.3731,-0.44947 0.01697,0.0105 0.0221,0.007 0.01231,-0.009 -0.02237,-0.0362 0.235789,-0.34323 0.270587,-0.32172 0.0156,0.01 0.01977,0.005 0.0097,-0.0115 -0.03831,-0.062 0.756522,-0.84743 1.120777,-1.10752 0.456426,-0.3259 0.831038,-0.40851 1.149509,-0.25351 0.2377241,0.1157 0.3343071,0.18343 0.5150221,0.36113 0.258649,0.25435 0.460817,0.64296 0.532068,1.02277 l 0.01703,0.0907 -0.142277,0.0318 c -0.454579,0.10173 -0.9212991,0.32368 -1.3433101,0.63882 -0.344102,0.25696 -1.015069,0.92581 -1.265613,1.26163 -0.107015,0.14344 -0.247384,0.36893 -0.311932,0.50108 l -0.117357,0.24029 0.317862,0.30893 c 0.759929,0.73857 1.589811,1.26121 2.3516001,1.48097 0.374058,0.10791 0.84896,0.13975 1.115723,0.0748 l 0.05951,-0.0145 -0.07491,0.14036 c -0.189341,0.35482 -0.559123,0.82583 -0.831605,1.05925 -0.395578,0.33887 -0.7621931,0.45683 -1.1778001,0.37895 -0.307431,-0.0576 -0.354528,-0.0819 -0.336175,-0.1737 0.0119,-0.0595 0.0062,-0.0717 -0.02976,-0.0658 -0.02442,0.004 -0.05876,-0.002 -0.07631,-0.0127 -0.0498,-0.0313 -0.09124,0.006 -0.05507,0.0497 0.09253,0.11148 -0.116297,0.0393 -0.641019,-0.22142 -0.537466,-0.26711 -1.211792,-0.68446 -1.653175,-1.02316 -0.325353,-0.24967 -0.395667,-0.24276 -0.541837,0.0532 -0.5744807,1.16336 -1.2948507,2.07306 -1.9192401,2.42365 -0.3100297,0.17409 -0.6708851,0.24142 -0.9308142,0.1737 z m 6.2091177,-1.32732 c 0.09195,-0.0791 0.09151,-0.18664 -0.0014,-0.26629 -0.04782,-0.0411 -0.08675,-0.0547 -0.124527,-0.0434 -0.183683,0.0547 -0.203015,0.27434 -0.0303,0.34435 0.07612,0.0309 0.08112,0.0298 0.155924,-0.0346 z m -0.178793,-0.074 c -0.03359,-0.048 -0.03427,-0.064 -0.0048,-0.10857 0.04515,-0.0681 0.101569,-0.0778 0.153161,-0.0262 0.05219,0.0522 0.0526,0.0996 0.0014,0.1509 -0.05541,0.0554 -0.103156,0.0502 -0.149659,-0.0161 z m 0.440138,-0.12764 c 0.04535,-0.0453 0.03714,-0.14287 -0.0143,-0.17043 -0.02476,-0.0133 -0.07646,-0.0181 -0.114949,-0.0107 -0.07336,0.014 -0.09814,-0.0274 -0.03167,-0.0529 0.05527,-0.0212 0.04713,-0.0674 -0.0119,-0.0674 -0.04207,0 -0.103074,0.066 -0.103074,0.11145 0,0.0387 0.09049,0.0929 0.15509,0.0929 0.04111,0 0.07481,0.0115 0.07481,0.0255 0,0.014 -0.01724,0.0255 -0.03831,0.0255 -0.02107,0 -0.03831,0.0172 -0.03831,0.0383 0,0.0458 0.07947,0.0508 0.122618,0.008 z m -6.634685,-5.32575 c 0.035503,-0.0933 0.029415,-0.12842 -0.032219,-0.18579 -0.076724,-0.0715 -0.2102733,-0.0691 -0.261954,0.005 -0.076334,0.10898 -0.03475,0.24177 0.087963,0.28084 0.066149,0.0211 0.1814538,-0.0347 0.2061757,-0.0997 z m -0.2125648,0.0155 c -0.06779,-0.0395 -0.056914,-0.14678 0.018401,-0.18107 0.076902,-0.035 0.1412515,0.007 0.1412515,0.0917 0,0.10009 -0.072011,0.14039 -0.1596527,0.0894 z m 0.4099914,-0.15634 c 0.081745,-0.0817 -0.00137,-0.21288 -0.1155993,-0.18294 -0.068734,0.018 -0.099715,-0.0333 -0.032903,-0.0545 0.071765,-0.0228 0.06437,-0.064 -0.011492,-0.064 -0.087799,0 -0.1251283,0.0776 -0.073085,0.15186 0.031467,0.0449 0.056503,0.0544 0.1137386,0.0429 0.054314,-0.0109 0.0734,-0.005 0.0734,0.023 0,0.0207 -0.017238,0.0377 -0.038307,0.0377 -0.021069,0 -0.038307,0.0172 -0.038307,0.0383 0,0.0458 0.079474,0.0508 0.1226177,0.008 z"
       id="path89"
       inkscape:connector-curvature="0"
       sodipodi:nodetypes="csscccccscscccccccsssccsccsccccscscccccccssscccsccccssssccccccccccccccccccssssssccccccccccsccccsccssscc" />
  </g>
</svg>
