<?xml version="1.0" encoding="UTF-8" standalone="no"?>
<!-- Creator: CorelDRAW X7 -->

<svg
   xmlns:dc="http://purl.org/dc/elements/1.1/"
   xmlns:cc="http://creativecommons.org/ns#"
   xmlns:rdf="http://www.w3.org/1999/02/22-rdf-syntax-ns#"
   xmlns:svg="http://www.w3.org/2000/svg"
   xmlns="http://www.w3.org/2000/svg"
   xmlns:sodipodi="http://sodipodi.sourceforge.net/DTD/sodipodi-0.dtd"
   xmlns:inkscape="http://www.inkscape.org/namespaces/inkscape"
   xml:space="preserve"
   width="50"
   height="45"
   version="1.1"
   style="clip-rule:evenodd;fill-rule:evenodd;image-rendering:optimizeQuality;shape-rendering:geometricPrecision;text-rendering:geometricPrecision"
   viewBox="0 0 1322.9166 1190.625"
   id="svg88"
   sodipodi:docname="HMexico.svg"
   inkscape:version="0.92.0 r15299"><metadata
     id="metadata92"><rdf:RDF><cc:Work
         rdf:about=""><dc:format>image/svg+xml</dc:format><dc:type
           rdf:resource="http://purl.org/dc/dcmitype/StillImage" /><dc:title></dc:title></cc:Work></rdf:RDF></metadata><sodipodi:namedview
     pagecolor="#ffffff"
     bordercolor="#666666"
     borderopacity="1"
     objecttolerance="10"
     gridtolerance="10"
     guidetolerance="10"
     inkscape:pageopacity="0"
     inkscape:pageshadow="2"
     inkscape:window-width="1366"
     inkscape:window-height="705"
     id="namedview90"
     showgrid="true"
     inkscape:zoom="5.6568543"
     inkscape:cx="46.703508"
     inkscape:cy="1.7212052"
     inkscape:window-x="-8"
     inkscape:window-y="-8"
     inkscape:window-maximized="1"
     inkscape:current-layer="svg88"
     units="px"><inkscape:grid
       type="xygrid"
       id="grid4569" /></sodipodi:namedview><defs
     id="defs4"><style
       type="text/css"
       id="style2"><![CDATA[
    .str1 {stroke:black;stroke-width:7.62;stroke-opacity:0.101961}
    .str0 {stroke:black;stroke-width:10.58}
    .fil1 {fill:none;fill-rule:nonzero}
    .fil0 {fill:white;fill-rule:nonzero}
    .fil2 {fill:black;fill-rule:nonzero;fill-opacity:0.301961}
    .fil3 {fill:#00B28D;fill-rule:nonzero;fill-opacity:0.600000}
   ]]></style></defs><g
     id="Background_x0020_Layer"
     transform="translate(0,-2619.3749)"><metadata
       id="CorelCorpID_0Corel-Layer" /></g><g
     id="g4917"
     transform="rotate(0.17380988,5669.3698,9005.3536)"><path
       id="path5047"
       d="m 355.56042,845.57281 c -1.02135,-15.84212 14.13078,-15.59437 12.15953,-16.76169 18.29182,3.71176 120.85554,76.13519 108.66028,22.98646 21.90648,2.36818 11.72031,-0.45988 14.60573,0 17.45121,22.56032 28.36873,63.51145 150.3927,37.30655 90.03858,10.00787 195.41405,22.81012 262.08552,1.5557 40.19834,3.78524 -0.58421,13.75744 -5.33163,17.71694 -12.59662,9.86722 -114.83036,21.96191 -40.16259,47.70488 -10.33329,9.86729 36.40085,-3.64246 0,8.84063 -102.23581,22.5267 -67.65703,36.70822 -119.57772,56.54552 -27.27593,-10.1842 -81.97068,1.2387 -139.00239,-2.8992 -40.92964,-5.1268 -2.26336,-40.42 -121.18337,-43.03586 -24.7919,-11.13951 3.79748,-0.14309 -9.16483,-10.61046 85.69462,-32.53246 -49.58381,-49.93241 -74.85066,-47.70495 -6.49797,-4.84332 9.01982,-3.11129 -1.82624,-15.91142 65.86866,-14.99397 -36.03726,-42.33045 -36.80433,-55.7331"
       style="fill:none;stroke:none;stroke-width:3.74074674px;stroke-linecap:round;stroke-linejoin:round;stroke-miterlimit:4;stroke-dasharray:none;stroke-opacity:1"
       inkscape:connector-curvature="0" /><path
       id="path5409"
       d="m 502.55915,1110.3717 c -6.71863,-8.2403 20.33663,-29.1399 12.19526,-31.2624 -10.87969,-6.5418 -35.74514,56.2642 -61.15701,18.5672 3.35827,-12.9786 28.66086,-18.8842 15.04285,-28.7515 -7.2293,-2.3324 -43.48723,37.3801 -58.4208,14.6057 -2.40837,-9.8673 27.45877,-19.6967 11.4282,-22.5624 3.72604,-4.4192 -34.10174,11.0702 -35.16093,8.8406 10.66114,-13.1906 -68.2413,7.2157 10.51614,-29.5618 0.76705,-6.1891 -9.82262,3.252 -1.82625,-13.7575 -1.16846,21.4308 -21.68792,-8.2738 -46.11417,-22.1005 -18.54821,-17.47123 -40.52824,16.3712 -47.46544,4.455 -7.01075,-1.415 3.10398,-10.36058 -1.82625,-18.14099 -9.8226,-7.53273 -39.17695,37.06089 -59.33286,-20.33492 1.05918,-12.44741 42.68234,7.14427 40.60182,-3.99518 3.65249,-12.87148 -74.52073,-3.00638 -60.68206,-39.78388 -4.41955,-6.25832 30.26853,13.72175 34.21102,2.22746 3.50537,-5.30307 -30.48708,-18.56508 -34.21102,-25.21392 -3.72604,-6.61104 13.76511,1.37932 10.4783,-7.07079 -3.24899,-8.383 -32.71472,-27.6199 -43.34013,-39.78388 -18.87606,-23.19846 -62.54613,-10.82247 -59.80781,-28.71573 3.65248,-12.16398 25.70607,4.91681 27.3852,-5.76289 2.59121,-17.85971 -59.185753,11.95192 -54.33119,-40.20796 6.24368,-7.74473 30.67202,12.27108 34.72379,10.14859 7.37642,-15.77289 -50.313034,-13.40265 -54.329087,-37.13022 -6.937188,-8.62856 21.431537,-5.02178 27.383107,-2.65366 5.55018,-2.51089 -16.42986,-14.28648 -10.516122,-21.67643 3.578922,-4.24499 7.412152,5.09107 11.428192,4.45499 1.20628,-8.41656 -3.9425,-29.28052 -5.95157,-55.73104 -5.987298,-14.85327 -17.489042,-21.2901 -27.822324,-33.59686 1.059172,-14.9583 -41.293219,-24.57572 -34.246748,-40.2059 1.605582,-14.42925 30.522816,9.79375 32.859726,3.07568 2.374744,-6.68452 -17.854703,-34.01887 -18.693222,-43.28357 12.378092,-22.13831 21.067966,3.07561 28.297276,3.95944 7.229309,-6.64878 -4.711661,-38.29741 15.042843,-43.779 6.790079,1.0266 4.343889,10.18426 9.601949,9.72445 5.25806,-0.42426 17.05192,-14.78191 21.90649,-12.37599 19.02317,6.85878 -16.28276,36.21066 -14.16651,42.89517 2.15409,6.6824 25.48542,-12.80225 26.94599,-2.65366 8.28849,10.15065 -32.56762,33.70183 -33.33468,40.66771 3.35827,13.19058 29.53719,-18.28172 28.77223,1.31002 -3.03043,9.01696 -27.45876,26.2742 -18.25611,35.858 0.54642,10.85609 -7.99636,19.83737 -5.95157,33.55912 -0.43919,18.42443 0.91208,38.15682 7.77571,52.15987 4.85667,8.77134 9.05556,22.52671 13.25443,17.68126 7.73999,1.627 6.06086,-22.38393 11.86742,-19.0249 12.85094,-3.43045 2.55548,45.26542 9.56622,40.66771 10.66113,3.39478 1.31347,-36.14136 22.81856,-29.59961 21.39791,7.8875 -3.72394,58.95148 9.60405,61.49599 7.81354,1.55777 8.4335,-19.87304 18.25611,-11.52791 1.56985,13.15491 -20.41019,54.35379 -8.68989,67.18959 11.72031,12.80225 34.39386,30.20002 41.54961,33.5948 7.15786,3.36116 5.25806,-20.19214 6.3908,-22.56026 7.59498,15.63012 10.55184,15.98277 11.39037,15.06327 2.00907,-11.59926 2.37474,14.39357 10.04117,11.91836 5.55016,5.12675 -0.36359,-21.8192 7.7778,-24.29441 27.23811,-3.39472 5.00168,56.82899 15.04285,60.081 13.6201,6.01269 2.00907,-33.45203 16.90481,-28.67799 12.08597,1.06021 33.84745,23.02007 20.55729,65.84595 5.84229,8.73353 4.92812,-12.51877 14.60363,-13.29768 16.79552,-6.4011 -1.60557,36.46052 13.69366,41.12746 7.52142,5.51726 26.21464,28.04184 38.77557,33.13504 25.3383,-17.1501 37.49783,17.8933 43.81506,15.0297 22.89212,-2.7944 -16.03057,-23.2699 -6.82791,-29.1755 4.70956,-4.0309 28.91723,-6.4704 49.72882,29.6353 31.43698,10.751 -14.34935,-27.6535 -5.00168,-29.6353 6.31513,-2.828 37.7164,-7.8141 49.29169,28.2916 10.66114,16.2663 12.15744,-0.5667 9.12701,-10.6104 9.60195,-2.8636 14.75074,17.1522 24.20768,19.4511 9.42121,2.3345 19.93523,-2.5466 32.4226,-5.4102 36.51221,-3.5732 159.6311,25.5666 170.58435,57.4651 -8.21492,5.9749 -16.42984,-1.3101 -17.70756,2.3681 -26.83673,-31.3316 -92.26623,-46.3613 -138.27107,-49.1892 -33.11611,-5.4459 -11.39246,13.2599 -50.24158,19.9801 -21.50511,8.4522 -18.9139,39.7481 -54.1841,36.5655 z"
       style="fill:#ffffff;fill-opacity:1;fill-rule:evenodd;stroke:none;stroke-width:1.65320194"
       inkscape:connector-curvature="0" /><path
       id="path5411"
       d="m 502.55915,1110.3717 c -6.71863,-8.2403 20.33663,-29.1399 12.19526,-31.2624 -10.87969,-6.5418 -35.74514,56.2642 -61.15701,18.5672 3.35827,-12.9786 28.66086,-18.8842 15.04285,-28.7515 -7.2293,-2.3324 -43.48723,37.3444 -58.4208,14.6057 -2.40837,-9.8673 27.45877,-19.6967 11.4282,-22.5624 3.72604,-4.4192 -34.10174,11.0702 -35.16093,8.8406 10.66114,-13.1906 -68.2413,7.2157 10.51614,-29.5975 0.76705,-6.189 -9.82262,3.2877 -1.82625,-13.7218 -1.16846,21.4308 -21.68792,-8.3094 -46.11417,-22.1005 -18.54821,-17.47123 -40.52824,16.3712 -47.46544,4.4193 -7.01075,-1.3793 3.10398,-10.32488 -1.82625,-18.10529 -9.8226,-7.53273 -39.17695,37.06089 -59.33286,-20.33492 1.05918,-12.44741 42.68234,7.14427 40.60182,-3.99518 3.65249,-12.87148 -74.52073,-3.00638 -60.68206,-39.78388 -4.41955,-6.25832 30.26853,13.72175 34.21102,2.22746 3.50537,-5.30307 -30.48708,-18.56508 -34.21102,-25.21392 -3.72604,-6.61104 13.76511,1.34364 10.4783,-7.07079 -3.24899,-8.383 -32.71472,-27.6199 -43.34013,-39.78388 -18.87606,-23.19846 -62.54613,-10.82247 -59.80781,-28.71573 3.65248,-12.16398 25.70607,4.91681 27.3852,-5.76289 2.59121,-17.89538 -59.185753,11.95192 -54.33119,-40.20796 6.24368,-7.74473 30.67202,12.27108 34.72379,10.14859 7.37642,-15.77289 -50.313034,-13.40265 -54.329087,-37.13022 -6.937188,-8.62856 21.431537,-5.02178 27.383107,-2.65366 5.55018,-2.51089 -16.42986,-14.28648 -10.516122,-21.67643 3.578922,-4.24499 7.412152,5.09107 11.428192,4.41925 1.20628,-8.38082 -3.9425,-29.24478 -5.95157,-55.6953 -5.987298,-14.85327 -17.489042,-21.2901 -27.822324,-33.59686 1.059172,-14.9583 -41.293219,-24.57572 -34.246748,-40.2059 1.605582,-14.42925 30.522816,9.79375 32.859726,3.07568 2.374744,-6.68452 -17.854703,-34.01887 -18.693222,-43.31931 12.378092,-22.10257 21.067966,3.11135 28.297276,3.99518 7.229309,-6.64878 -4.711661,-38.33309 15.042843,-43.779 6.790079,1.0266 4.343889,10.18426 9.601949,9.72445 5.25806,-0.42426 17.05192,-14.78191 21.90649,-12.37599 19.02317,6.85878 -16.28276,36.17492 -14.16651,42.89517 2.15409,6.6824 25.48542,-12.83793 26.94599,-2.65366 8.28849,10.15065 -32.56762,33.66615 -33.33468,40.66771 3.35827,13.19058 29.53719,-18.28172 28.77223,1.31002 -3.03043,9.01696 -27.45876,26.23852 -18.25611,35.82233 0.54642,10.89176 -7.99636,19.87304 -5.95157,33.59479 -0.43919,18.42443 0.91208,38.15682 7.77571,52.15987 4.85667,8.77134 9.05556,22.52671 13.25443,17.68126 7.73999,1.627 6.06086,-22.38393 11.86742,-19.0249 12.85094,-3.43045 2.55548,45.26542 9.56622,40.66771 10.66113,3.39478 1.31347,-36.14136 22.81856,-29.59961 21.39791,7.8875 -3.72394,58.95148 9.60405,61.46237 7.81354,1.59139 8.4335,-19.83942 18.25611,-11.49429 1.56985,13.15491 -20.41019,54.35379 -8.68989,67.18959 11.72031,12.80225 34.39386,30.20002 41.54961,33.5948 7.15786,3.36116 5.25806,-20.19214 6.3908,-22.56026 7.59498,15.63012 10.55184,15.98277 11.39037,15.02965 2.00907,-11.56564 2.37474,14.42719 10.04117,11.95198 5.55016,5.12675 -0.36359,-21.8192 7.7778,-24.33009 27.23811,-3.39478 5.00168,56.86467 15.04285,60.11668 13.6201,5.97702 2.00907,-33.45203 16.90481,-28.71367 12.08597,1.09589 33.84745,23.05575 20.55729,65.84595 5.84229,8.76921 4.92812,-12.51883 14.60363,-13.262 16.79552,-6.4011 -1.60557,36.46052 13.69366,41.12746 7.52142,5.51726 26.21464,28.04184 38.77557,33.13504 25.3383,-17.1501 37.49783,17.8933 43.81506,15.0297 22.89212,-2.7944 -16.03057,-23.2699 -6.82791,-29.1755 4.70956,-4.0309 28.91723,-6.4704 49.72882,29.6353 31.43698,10.751 -14.34935,-27.6535 -5.00168,-29.6353 6.31513,-2.8636 37.7164,-7.8141 49.29169,28.2916 10.66114,16.2306 12.15744,-0.5667 9.12701,-10.6104 9.60195,-2.8636 14.75074,17.1165 24.20768,19.4511 9.42121,2.3345 19.93523,-2.5466 32.4226,-5.4459 36.51221,-3.5375 159.6311,25.6023 170.58435,57.5008 -8.21492,5.9749 -16.42984,-1.3101 -17.70756,2.3324 -26.83673,-31.3316 -92.26623,-46.3256 -138.27107,-49.1535 -33.11611,-5.4459 -11.39246,13.2599 -50.24158,19.9801 -21.50511,8.4522 -18.9139,39.7481 -54.1841,36.5655"
       style="fill:#008000;stroke:none;stroke-width:3.74074674px;stroke-linecap:round;stroke-linejoin:round;stroke-miterlimit:4;stroke-dasharray:none;stroke-opacity:1"
       inkscape:connector-curvature="0" /><path
       id="path5413"
       d="m 169.56755,875.0654 c 2.51976,-26.09781 20.33874,-2.12256 22.63783,2.33449 7.81354,-0.38864 18.25611,-0.74317 25.48541,-0.74317 7.22931,0 2.66686,-16.44465 4.63811,-23.09143 -12.59666,-6.18909 -22.0536,-22.77439 -1.3513,-22.45528 -5.3316,-20.01582 22.96566,-14.64132 13.21661,0.42426 19.02317,2.26314 8.91055,18.35307 -2.73831,21.60714 -2.9926,9.40535 -0.0714,24.85913 -6.9372,30.51705 -11.35464,1.415 -25.70397,3.46614 -34.13746,3.43046 -14.34934,25.5687 -25.26685,12.44741 -24.6469,0.88382 -19.64312,2.68728 -13.10733,-21.35939 3.83321,-12.90716 z"
       style="fill:#ffffff;fill-opacity:1;fill-rule:evenodd;stroke:none;stroke-width:1.65320194"
       inkscape:connector-curvature="0" /><path
       id="path5415"
       d="m 169.56755,875.0654 c 2.51976,-26.09781 20.33874,-2.12256 22.63783,2.33449 7.81354,-0.38864 18.25611,-0.77885 25.48541,-0.77885 7.22931,0 2.66686,-16.40897 4.63811,-23.05575 -12.59666,-6.18909 -22.0536,-22.77439 -1.3513,-22.45528 -5.3316,-20.01582 22.96566,-14.64132 13.21661,0.42426 19.02317,2.26314 8.91055,18.35307 -2.73831,21.60714 -2.9926,9.40535 -0.0714,24.85913 -6.9372,30.51705 -11.35464,1.415 -25.70397,3.46614 -34.13746,3.43046 -14.34934,25.5687 -25.26685,12.44741 -24.6469,0.88382 -19.64312,2.68728 -13.10733,-21.35939 3.83321,-12.90716"
       style="fill:#ffcc00;stroke:none;stroke-width:3.74074674px;stroke-linecap:round;stroke-linejoin:round;stroke-miterlimit:4;stroke-dasharray:none;stroke-opacity:1"
       inkscape:connector-curvature="0" /><path
       id="path5417"
       d="m 323.2492,1023.8024 c -1.4984,-26.23845 19.78813,-5.0218 22.78282,-0.9552 7.63071,-1.4843 17.92827,-3.3591 25.0462,-4.3836 7.15785,-1.0623 0.14709,-16.6567 1.097,-23.51763 -13.43726,-4.34996 -25.30467,-19.44897 -4.78311,-22.10257 -8.32632,-19.06057 20.48163,-17.78623 13.14305,-1.44861 19.17027,-0.42426 11.61102,16.90234 0.58422,21.8192 -1.4963,9.76011 3.72394,24.64711 -2.18981,31.26021 -10.99107,3.0421 -24.90118,7.0729 -33.22539,8.2759 -10.29755,27.37 -23.11276,15.9135 -24.2455,4.4193 -19.05889,5.4458 -16.24703,-19.344 1.79051,-13.367 z"
       style="fill:#ffffff;fill-opacity:1;fill-rule:evenodd;stroke:none;stroke-width:1.65320194"
       inkscape:connector-curvature="0" /><path
       id="path5419"
       d="m 323.2492,1023.8024 c -1.4984,-26.23845 19.78813,-5.0218 22.78282,-0.9552 7.63071,-1.52 17.92827,-3.3591 25.0462,-4.3836 7.15785,-1.0623 0.14709,-16.6567 1.097,-23.51763 -13.43726,-4.34996 -25.30467,-19.44897 -4.78311,-22.10257 -8.32632,-19.06057 20.48163,-17.78623 13.14305,-1.44861 19.17027,-0.45988 11.61102,16.90234 0.58422,21.78353 -1.4963,9.79578 3.72394,24.68278 -2.18981,31.26028 -10.99107,3.042 -24.90118,7.1085 -33.22539,8.3115 -10.29755,27.37 -23.11276,15.9135 -24.2455,4.3835 -19.05889,5.4816 -16.24703,-19.3082 1.79051,-13.3312"
       style="fill:#ffcc00;stroke:none;stroke-width:3.59574008px;stroke-linecap:round;stroke-linejoin:round;stroke-miterlimit:4;stroke-dasharray:none;stroke-opacity:1"
       inkscape:connector-curvature="0" /><path
       id="path5421"
       d="m 75.073775,673.21326 c 14.569995,-19.55606 15.700629,6.82517 15.189954,11.31578 5.842288,2.93502 13.546541,7.00156 18.766771,10.07929 5.22234,3.00638 9.9319,-11.95197 14.64146,-16.37329 -6.09658,-10.14859 -4.78311,-27.26505 10.00544,-18.35307 5.91374,-18.07171 23.73273,-2.0154 9.30984,5.86999 12.63448,9.76013 -2.51975,18.24803 -12.5231,15.98489 -6.75436,6.18697 -12.23098,19.6253 -19.93523,21.25236 -8.87272,-3.60684 -20.229453,-7.99248 -26.326029,-11.49217 -22.85638,14.21506 -24.316957,-0.74323 -18.220378,-9.61954 -15.479966,-6.08199 0.985623,-22.45528 9.091272,-8.66424 z"
       style="fill:#ffffff;fill-opacity:1;fill-rule:evenodd;stroke:none;stroke-width:1.65320194"
       inkscape:connector-curvature="0" /><path
       id="path5423"
       d="m 75.073775,673.21326 c 14.569995,-19.59174 15.700629,6.82517 15.189954,11.31578 5.842288,2.93502 13.546541,7.00156 18.766771,10.04362 5.22234,3.00631 9.9319,-11.9163 14.64146,-16.33762 -6.09658,-10.14859 -4.78311,-27.26505 10.00544,-18.38875 5.91374,-18.03603 23.73273,-1.97972 9.30984,5.90567 12.63448,9.72445 -2.51975,18.24803 -12.5231,15.94921 -6.75436,6.22265 -12.23098,19.66098 -19.93523,21.28804 -8.87272,-3.60684 -20.229453,-7.99248 -26.326029,-11.52791 -22.85638,14.2508 -24.316957,-0.70749 -18.220378,-9.61948 -15.479966,-6.08199 0.985623,-22.4196 9.091272,-8.62856"
       style="fill:#ffcc00;stroke:none;stroke-width:3.59574008px;stroke-linecap:round;stroke-linejoin:round;stroke-miterlimit:4;stroke-dasharray:none;stroke-opacity:1"
       inkscape:connector-curvature="0" /><path
       id="path5425"
       d="m 559.08016,1096.5785 c 18.69532,-23.5512 104.06003,-71.4325 192.56653,-40.949 48.77884,5.6579 70.02964,-82.81972 154.15443,-47.3859 -10.88183,15.2061 -64.04244,26.1671 -90.11206,37.2016 l 81.13003,-24.7541 c 8.17712,0.2118 11.90106,-2.3346 35.63587,3.1113 12.77739,-8.7 7.88501,-7.6376 41.03893,-32.32257 12.70596,-13.65033 10.80822,-23.33917 10.07692,-43.70764 -3.50538,-27.93687 48.85459,-32.8873 70.25029,-76.10157 7.5929,8.2759 4.3818,30.27144 0.5105,35.36251 -3.6503,3.96156 -46.0048,39.53613 -44.3257,57.92482 7.595,-35.99858 59.8057,-75.03923 91.7912,-76.45422 11.9032,-14.00312 15.8457,-15.13469 21.9065,-25.17825 14.3872,-36.14142 -13.8008,-65.35052 -5.0374,-89.32789 8.7634,-24.04667 37.0964,-45.97079 57.5423,-54.81142 3.1398,12.16399 2.2634,5.93922 -2.774,21.6407 -5.0395,15.70153 -41.5517,49.7204 -27.3852,72.49479 -8.6899,-54.17527 53.4549,-80.76857 59.3686,-102.12797 12.708,-89.89262 -14.3851,-63.51138 -18.2561,-91.09554 -3.9425,-27.51287 16.7976,-44.06255 -5.0374,-74.26257 41.2575,15.84219 14.6772,57.07668 33.2989,87.98432 -29.4278,-61.39108 21.543,-108.98893 29.72,-110.5467 17.7455,25.32102 14.2401,81.83085 -11.9031,113.65799 21.6901,-29.84736 24.4641,-74.0505 36.0751,-81.33548 49.9495,97.46109 -53.0892,84.37548 -57.8345,155.88141 -0.1468,12.87148 3.7954,90.38599 -40.3097,119.10172 32.057,-8.91199 34.2468,-67.26095 41.039,-68.1091 1.8262,-3.46613 14.5321,-23.26988 42.0624,-18.9556 -37.9729,16.33974 -35.0516,71.29181 -55.279,91.94582 -20.2295,20.58054 -46.4441,7.84971 -66.1608,31.82496 -12.4138,12.87361 -13.6559,9.47889 -25.559,28.29172 -5.5502,37.7663 -33.9567,61.95574 -75.3613,79.56558 53.9655,-15.27534 58.7129,-56.22641 86.3146,-53.0437 2.629,103.33098 -122.97183,64.29024 -142.90704,79.56768 -11.8317,6.7895 -18.62182,12.8002 -32.42474,29.2091 -26.1411,33.3114 -98.36272,42.364 -122.31398,38.1212 38.62845,11.8112 79.9616,-30.4121 123.11889,3.6067 -24.31697,-3.042 -90.55125,39.3241 -122.24256,35.1505 -31.61976,-4.1023 -51.11784,-42.2234 -88.06717,-48.1647 -60.53919,-12.2354 -132.46661,3.8902 -162.48084,41.5872 -5.25806,-0.2837 -5.76873,2.4752 -11.82959,-4.5977 z"
       style="fill:#ffffff;fill-opacity:1;fill-rule:evenodd;stroke:none;stroke-width:1.65320194"
       inkscape:connector-curvature="0" /><path
       id="path5427"
       d="m 559.08016,1096.5785 c 18.69532,-23.5512 104.06003,-71.4325 192.56653,-40.949 48.77884,5.6579 70.02964,-82.81972 154.15443,-47.3859 -10.88183,15.2061 -64.04244,26.1671 -90.11206,37.2016 l 81.13003,-24.7541 c 8.17712,0.2118 11.90106,-2.3346 35.63587,3.1113 12.77739,-8.7 7.88501,-7.6376 41.03893,-32.32257 12.70596,-13.65033 10.80822,-23.33917 10.07692,-43.70764 -3.50538,-27.93687 48.85459,-32.8873 70.25029,-76.10157 7.5929,8.2759 4.3818,30.27144 0.5105,35.36251 -3.6503,3.96156 -46.0048,39.53613 -44.3257,57.92482 7.595,-35.99858 59.8057,-75.03923 91.7912,-76.45422 11.9032,-14.00312 15.8457,-15.13469 21.9065,-25.17825 14.3872,-36.14142 -13.8008,-65.35052 -5.0374,-89.32789 8.7634,-24.04667 37.0964,-45.97079 57.5423,-54.81142 3.1398,12.16399 2.2634,5.93922 -2.774,21.6407 -5.0395,15.70153 -41.5517,49.7204 -27.3852,72.49479 -8.6899,-54.17527 53.4549,-80.76857 59.3686,-102.12797 12.708,-89.89262 -14.3851,-63.51138 -18.2561,-91.09554 -3.9425,-27.51287 16.7976,-44.06255 -5.0374,-74.26257 41.2575,15.84219 14.6772,57.07668 33.2989,87.98432 -29.4278,-61.39108 21.543,-108.98893 29.72,-110.5467 17.7455,25.32102 14.2401,81.83085 -11.9031,113.65799 21.6901,-29.84736 24.4641,-74.0505 36.0751,-81.33548 49.9495,97.46109 -53.0892,84.37548 -57.8345,155.88141 -0.1468,12.87148 3.7954,90.38599 -40.3097,119.10172 32.057,-8.91199 34.2468,-67.26095 41.039,-68.1091 1.8262,-3.46613 14.5321,-23.26988 42.0624,-18.9556 -37.9729,16.33974 -35.0516,71.29181 -55.279,91.94582 -20.2295,20.58054 -46.4441,7.84971 -66.1608,31.82496 -12.4138,12.87361 -13.6559,9.47889 -25.559,28.29172 -5.5502,37.7663 -33.9567,61.95574 -75.3613,79.56558 53.9655,-15.27534 58.7129,-56.22641 86.3146,-53.0437 2.629,103.33098 -122.97183,64.29024 -142.90704,79.56768 -11.8317,6.7895 -18.62182,12.8002 -32.42474,29.2091 -26.1411,33.3114 -98.36272,42.364 -122.31398,38.1212 38.62845,11.8112 79.9616,-30.4121 123.11889,3.6067 -24.31697,-3.042 -90.55125,39.3241 -122.24256,35.1505 -31.61976,-4.1023 -51.11784,-42.2234 -88.06717,-48.1647 -60.53919,-12.2354 -132.46661,3.8902 -162.48084,41.5872 -5.25806,-0.2837 -5.76873,2.4752 -11.82959,-4.5977 z"
       style="opacity:1;fill:#008000;stroke:none;stroke-width:3.74074674px;stroke-linecap:round;stroke-linejoin:round;stroke-miterlimit:4;stroke-dasharray:none;stroke-opacity:1"
       inkscape:connector-curvature="0" /><path
       id="path5429"
       d="m 1188.9147,683.82154 c -44.4708,12.16611 -6.2795,-52.69098 3.726,-7.92106 4.5267,0.21182 10.4426,17.89326 18.9118,17.04511 9.3477,-1.55564 27.3117,-7.35421 34.0303,-6.86084 31.4012,-33.52344 36.5857,30.69551 0.9499,8.77133 -10.079,-0.21182 -17.3083,6.36542 -36.3672,6.36542 -10.8082,-8.77134 -18.3297,-13.15491 -21.2508,-17.39996 z"
       style="fill:#ffffff;fill-opacity:1;fill-rule:evenodd;stroke:none;stroke-width:1.65320194"
       inkscape:connector-curvature="0" /><path
       id="path5431"
       d="m 1188.9147,683.82154 c -44.4708,12.16611 -6.2795,-52.69098 3.726,-7.92106 4.5267,0.21182 10.4426,17.89326 18.9118,17.04511 9.3477,-1.55564 27.3117,-7.35421 34.0303,-6.86084 31.4012,-33.52344 36.5857,30.69551 0.9499,8.77133 -10.079,-0.21182 -17.3083,6.36542 -36.3672,6.36542 -10.8082,-8.77134 -18.3297,-13.15491 -21.2508,-17.39996"
       style="fill:#ffcc00;stroke:none;stroke-width:3.74074674px;stroke-linecap:round;stroke-linejoin:round;stroke-miterlimit:4;stroke-dasharray:none;stroke-opacity:1"
       inkscape:connector-curvature="0" /><path
       id="path5433"
       d="m 1102.1251,858.62281 c -45.8577,-5.34094 15.1165,-51.03043 6.5737,-5.94134 4.0896,1.90836 2.5554,20.43982 10.6968,22.77232 9.2741,2.05114 28.1145,3.39471 34.1396,6.32974 42.2809,-19.30619 21.5429,42.04696 -2.6291,8.48791 -9.2005,-3.9595 -18.4746,-0.53111 -36.0729,-7.6377 -6.5001,-12.16605 -11.6846,-19.02483 -12.7081,-24.01093 z"
       style="fill:#ffffff;fill-opacity:1;fill-rule:evenodd;stroke:none;stroke-width:1.65320194"
       inkscape:connector-curvature="0" /><path
       id="path5435"
       d="m 1102.1251,858.62281 c -45.8577,-5.34094 15.1165,-51.06611 6.5737,-5.94134 4.0896,1.87268 2.5554,20.43982 10.6968,22.77232 9.2741,2.05114 28.1145,3.39471 34.1396,6.32974 42.2809,-19.30619 21.5429,42.01129 -2.6291,8.48791 -9.2005,-3.99518 -18.4746,-0.53111 -36.0729,-7.6377 -6.5001,-12.20179 -11.6846,-19.02483 -12.7081,-24.01093"
       style="fill:#ffcc00;stroke:none;stroke-width:3.59574008px;stroke-linecap:round;stroke-linejoin:round;stroke-miterlimit:4;stroke-dasharray:none;stroke-opacity:1"
       inkscape:connector-curvature="0" /><path
       id="path5437"
       d="m 945.30589,985.36216 c -39.79694,-22.7387 35.01591,-40.87971 8.47135,-2.8636 2.9947,3.28768 -6.13441,19.73234 0.36553,25.00194 7.6307,5.4815 24.35265,14.003 28.6608,19.0605 46.73623,-1.2386 2.33694,46.8547 -5.95152,6.7539 -6.75438,-7.2493 -16.68627,-7.6734 -29.86717,-21.0047 -0.87633,-13.72171 -2.80975,-21.96194 -1.67911,-26.94804 z"
       style="fill:#ffffff;fill-opacity:1;fill-rule:evenodd;stroke:none;stroke-width:1.65320194"
       inkscape:connector-curvature="0" /><path
       id="path5439"
       d="m 945.30589,985.36216 c -39.79694,-22.7387 35.01591,-40.87971 8.47135,-2.8636 2.9947,3.28768 -6.13441,19.69674 0.36553,25.00194 7.6307,5.4815 24.35265,14.003 28.6608,19.0605 46.73623,-1.2386 2.33694,46.8547 -5.95152,6.7539 -6.75438,-7.2493 -16.68627,-7.6734 -29.86717,-21.0047 -0.87633,-13.72171 -2.80975,-21.96194 -1.67911,-26.94804"
       style="fill:#ffcc00;stroke:none;stroke-width:3.59574008px;stroke-linecap:round;stroke-linejoin:round;stroke-miterlimit:4;stroke-dasharray:none;stroke-opacity:1"
       inkscape:connector-curvature="0" /><path
       id="path5441"
       d="m 636.48628,1077.9441 c 1.13276,-20.971 -1.35132,-32.3939 -0.43925,-43.8861 5.14874,-2.5822 13.9122,-4.8097 17.01618,-2.6515 1.78839,19.7323 -0.7313,34.972 0.47487,51.7001 -1.38912,28.785 55.97254,49.0485 68.05848,53.8919 -4.78309,0.4598 -3.72393,0.5667 4.56247,16.7974 -30.96207,2.6179 -82.9185,-46.6784 -97.30357,-53.4678 -29.13786,13.686 -25.11972,25.85 -35.16089,33.135 -3.79749,-2.8993 -26.25249,18.1053 -17.81899,6.189 20.48375,-48.0933 50.42443,-50.3228 60.61058,-61.708 z"
       style="fill:#ffffff;fill-opacity:1;fill-rule:evenodd;stroke:none;stroke-width:1.65320194"
       inkscape:connector-curvature="0" /><path
       id="path5443"
       d="m 636.48628,1077.9084 c 1.13276,-20.9353 -1.35132,-32.3582 -0.43925,-43.8504 5.14874,-2.5822 13.9122,-4.8097 17.01618,-2.6515 1.78839,19.7323 -0.7313,34.972 0.47487,51.7001 -1.38912,28.785 55.97254,49.0485 68.05848,53.8919 -4.78309,0.4261 -3.72393,0.5311 4.56247,16.7974 -30.96207,2.5822 -82.9185,-46.6784 -97.30357,-53.4678 -29.13786,13.686 -25.11972,25.85 -35.16089,33.135 -3.79749,-2.8993 -26.25249,18.1053 -17.81899,6.189 20.48375,-48.0933 50.42443,-50.3228 60.61058,-61.7437"
       style="fill:#ff0000;stroke:none;stroke-width:3.74074674px;stroke-linecap:round;stroke-linejoin:round;stroke-miterlimit:4;stroke-dasharray:none;stroke-opacity:1"
       inkscape:connector-curvature="0" /><path
       id="path5445"
       d="m 653.20823,1078.4375 c 1.13276,-20.9333 -1.82413,-34.9741 -0.87632,-46.502 -1.27772,-2.1561 25.77758,-3.9259 25.7061,0.4599 1.75271,19.7324 2.44621,37.1659 -5.03953,54.8136 -0.25618,21.2166 52.54071,32.8159 60.46352,40.9154 -35.89017,-10.0793 -17.8169,2.5445 -15.99277,7.0372 -8.65199,-5.2338 -41.76816,-10.7868 -56.66597,-38.4045 -16.06632,4.667 -34.54097,30.3764 -42.17167,39.0049 -3.79751,-13.0499 7.12003,-24.7541 -23.33134,-3.9615 15.91919,-33.5235 60.97628,-38.3689 57.90798,-53.3629 z"
       style="fill:#ffffff;fill-opacity:1;fill-rule:evenodd;stroke:none;stroke-width:1.65320194"
       inkscape:connector-curvature="0" /><path
       id="path5447"
       d="m 653.20823,1078.4375 c 1.13276,-20.9333 -1.82413,-35.0077 -0.87632,-46.502 -1.27772,-2.1561 25.77758,-3.9259 25.7061,0.4599 1.75271,19.7324 2.44621,37.1659 -5.03953,54.7779 -0.25618,21.2523 52.54071,32.8516 60.46352,40.9154 -35.89017,-10.0436 -17.8169,2.5802 -15.99277,7.0729 -8.65199,-5.2338 -41.76816,-10.7868 -56.66597,-38.4402 -16.06632,4.7027 -34.54097,30.4121 -42.17167,39.0406 -3.79751,-13.0499 7.12003,-24.7541 -23.33134,-3.9615 15.91919,-33.5235 60.97628,-38.4025 57.90798,-53.3629"
       style="fill:none;stroke:none;stroke-width:3.74074674px;stroke-linecap:round;stroke-linejoin:round;stroke-miterlimit:4;stroke-dasharray:none;stroke-opacity:1"
       inkscape:connector-curvature="0" /><path
       id="path5449"
       d="m 673.72773,1085.9009 c 7.52148,-24.0488 2.73832,-41.6586 3.68826,-53.1172 -4.45318,-3.4998 12.96227,-3.9238 16.10199,-1.7677 1.75271,19.6967 -1.67912,36.7082 -0.47488,53.4342 6.2437,15.6301 63.60531,28.1489 62.61969,45.7252 -11.94098,-2.1939 -13.2187,-2.5823 -21.43362,-1.3101 -4.56458,-10.2198 -44.58215,-16.2305 -52.50497,-28.2895 -10.58759,6.6488 -39.79694,30.6955 -54.40267,51.8765 -1.05918,-12.164 -3.87104,-12.3761 -7.77782,-18.0697 35.08945,-43.25 43.99794,-37.0966 54.18408,-48.4817 z"
       style="fill:#ffffff;fill-opacity:1;fill-rule:evenodd;stroke:none;stroke-width:1.65320194"
       inkscape:connector-curvature="0" /><path
       id="path5451"
       d="m 673.72773,1085.9009 c 7.52148,-24.0488 2.73832,-41.6586 3.68826,-53.1172 -4.45318,-3.4998 12.96227,-3.9238 16.10199,-1.7677 1.75271,19.6967 -1.67912,36.7082 -0.47488,53.4342 6.2437,15.6301 63.60531,28.1133 62.61969,45.7252 -11.94098,-2.2296 -13.2187,-2.5823 -21.43362,-1.3101 -4.56458,-10.2556 -44.58215,-16.2305 -52.50497,-28.2895 -10.58759,6.6488 -39.79694,30.6598 -54.40267,51.8765 -1.05918,-12.164 -3.87104,-12.3761 -7.77782,-18.1054 35.08945,-43.2143 43.99794,-37.0609 54.18408,-48.446"
       style="fill:#008000;stroke:none;stroke-width:3.74074674px;stroke-linecap:round;stroke-linejoin:round;stroke-miterlimit:4;stroke-dasharray:none;stroke-opacity:1"
       inkscape:connector-curvature="0" /></g><g
     id="g5163"
     transform="matrix(0.37104131,0,0,0.37104131,3792.1478,251.53572)"><path
       sodipodi:nodetypes="czszsszssc"
       inkscape:connector-curvature="0"
       id="path5046-5"
       d="m -9586.1181,292.78963 c 149.3619,112.63462 -235.028,276.85502 -277.514,78.42752 -42.486,-198.42752 417.514,-398.427514 677.514,-398.427514 198.1678,0 560,339.999994 640,219.999994 80,-119.999994 80,-259.999994 240,-299.99999 120.6731,-30.16831 200,59.999996 201.4021,137.390396 1.8867,104.140094 -241.4021,222.609594 -41.4021,262.609594 200,40 120,-219.999994 640,-399.99999 316.0223,-109.39231 660,-20.00001 719.9188,-378.85611 37.8379,-226.61292 -239.9188,-161.1439 -159.9188,-21.1439"
       style="fill:none;stroke:#000000;stroke-width:30;stroke-linecap:butt;stroke-linejoin:miter;stroke-miterlimit:4;stroke-dasharray:none;stroke-opacity:1" /><path
       sodipodi:nodetypes="cccc"
       inkscape:connector-curvature="0"
       id="path5074"
       d="m -8231.1181,107.78965 c 76.581,-45.016501 60,-99.999995 105,-104.999995 10,35 140,70 75,139.999995 -55,-94.999995 -125,-30 -180,-35 z"
       style="fill:#1a1a1a;stroke:#000000;stroke-width:1px;stroke-linecap:butt;stroke-linejoin:miter;stroke-opacity:1" /><path
       inkscape:connector-curvature="0"
       d="m -8194.9005,12.849454 c 1.1825,-0.640099 -2.9368,1.663487 -1.8229,1.016479 1.6207,-0.941446 6.5036,-3.729629 4.8731,-2.805152 -6.8794,3.90071 -4.0658,2.680164 -7.0934,3.955112 -1.3349,0.760941 -2.6651,1.093125 -4.1277,1.479068 -1.6286,0.399115 -3.2675,0.69528 -4.9368,0.850565 -1.7963,0.129891 -3.599,0.132992 -5.3991,0.140071 -2.4661,0.04627 -4.8928,-0.524735 -7.2632,-1.144893 -2.7715,-0.760876 -5.5355,-1.536067 -8.228,-2.546117 -1.67,-0.659283 -3.2784,-1.469541 -4.9533,-2.114364 -1.0184,-0.511693 -2.0926,-0.917034 -3.0834,-1.481819 -0.8549,-0.392689 -1.5377,-1.053886 -2.2734,-1.622738 -0.8349,-0.409073 -1.7506,-0.649561 -2.6269,-0.976679 -2.4721,-1.176148 -4.8085,-2.607795 -7.2356,-3.868172 -1.4366,-0.808163 -2.9392,-1.464464 -4.3518,-2.311525 -0.8337,-0.451678 -1.6465,-0.942616 -2.5286,-1.301411 -1.64,-0.888377 -3.3336,-1.666322 -5.0365,-2.424543 -2.3425,-1.046821 -4.786,-1.836587 -7.1683,-2.781818 -2.2913,-0.855072 -4.6154,-1.628725 -6.9618,-2.318083 -1.4457,-0.411202 -2.937,-0.592057 -4.4096,-0.871189 -1.03,-0.192781 -2.0763,-0.251752 -3.1215,-0.280199 -0.9247,-0.01756 -1.8496,-0.0083 -2.7744,-0.01247 -1.7205,0.288233 -3.4736,0.287618 -5.2127,0.337739 -2.0646,0.05512 -4.1298,0.08029 -6.195,0.101561 -1.1374,-0.08857 -2.2384,0.172261 -3.356,0.32559 -0.9853,0.0318 -1.9092,0.315021 -2.8213,0.668608 -1.2597,0.608888 -2.5395,1.173466 -3.8265,1.721757 -1.2973,0.471112 -2.5528,1.022678 -3.8068,1.595803 -0.9678,0.435335 -1.9839,0.843568 -2.8917,1.395208 -0.7347,0.405684 -1.4807,0.77142 -2.2344,1.135659 0.2458,-0.07289 -0.9487,0.523738 -0.7144,0.387696 11.4371,-6.640862 2.1188,-1.11077 -1.3561,0.77961 -0.1299,0.05382 -0.5111,0.232266 -0.3897,0.161451 1.7805,-1.038097 7.1233,-4.148295 5.3699,-3.0651 -1.9768,1.221166 -4.03,2.313894 -6.0402,3.479233 -1.7951,1.040665 3.5901,-2.08169 5.395,-3.105206 0.1036,-0.05876 -0.1928,0.139937 -0.2892,0.209906 0,0 -6.2073,2.440908 -6.2073,2.440908 v 0 c 2.0353,-1.339675 4.2885,-2.335887 6.2851,-3.73249 1.6913,-1.183011 -7.1848,4.064573 -5.361,3.098338 2.0565,-1.089476 4.0396,-2.312187 6.0593,-3.468281 0.1234,-0.06328 0.2468,-0.126562 0.3702,-0.189844 2.2052,-1.124044 0.5333,-0.280149 -5.0041,2.928122 -0.1108,0.06419 0.2202,-0.130739 0.3309,-0.195122 2.2255,-1.294491 4.4534,-2.691126 6.7548,-3.893449 0.7347,-0.384627 1.4943,-0.721199 2.2128,-1.138899 0.9639,-0.447312 1.8989,-0.954349 2.89,-1.342359 1.2452,-0.571972 2.5312,-1.041148 3.7962,-1.567108 1.296,-0.560741 2.5655,-1.181582 3.8763,-1.707318 0.9545,-0.31114 1.9213,-0.501955 2.9235,-0.579107 1.1156,-0.163718 2.2281,-0.28938 3.3592,-0.214845 2.0374,0.0074 4.0753,10e-4 6.1118,-0.06624 1.7877,-0.0726 3.5653,-0.221633 5.3433,-0.405693 0.9316,-0.0062 1.8636,-0.0058 2.7946,0.0316 1.0601,0.0558 2.1172,0.160184 3.1581,0.376234 1.4654,0.285962 2.9454,0.513078 4.368,0.983325 2.3354,0.73086 4.6579,1.506869 6.9394,2.393417 2.4122,0.921253 4.8683,1.730896 7.2328,2.774487 1.7187,0.758001 3.4212,1.54827 5.1144,2.360694 0.8987,0.397151 1.7655,0.853735 2.5982,1.375841 1.354,0.861574 2.8182,1.525881 4.1843,2.370162 2.3942,1.305385 4.7298,2.745127 7.2913,3.712443 0.9547,0.31507 1.9832,0.515743 2.8015,1.129187 0.689,0.568537 1.3755,1.154012 2.1911,1.536887 0.9876,0.512126 2.0076,0.965652 3.0132,1.440189 1.6262,0.703402 3.2217,1.477551 4.8594,2.155938 2.6533,1.006936 5.378,1.802 8.121,2.526185 2.3893,0.555117 4.8186,1.0307 7.2849,0.932808 1.7893,-0.01118 3.5819,-0.01877 5.3642,-0.196047 1.6554,-0.196086 3.2858,-0.523434 4.8982,-0.948189 1.4095,-0.374925 2.7469,-0.890167 4.0469,-1.557224 0.2372,-0.116954 0.939,-0.486051 0.7116,-0.350862 -1.6236,0.965554 -6.546,3.773943 -4.9023,2.843031 2.7661,-1.566566 5.4854,-3.227922 8.2884,-4.732221 0,0 -5.208,4.165864 -5.208,4.165864 z"
       id="path5076"
       style="opacity:1;fill:#1a1a1a;stroke:#000000;stroke-width:7;stroke-miterlimit:4;stroke-dasharray:none;stroke-opacity:1" /><g
       style="stroke:none"
       transform="translate(-9434.1182,664.78966)"
       id="g5153"><rect
         style="opacity:1;fill:#1a1a1a;stroke:none;stroke-width:5.69999981;stroke-miterlimit:4;stroke-dasharray:none;stroke-opacity:1"
         id="rect5078-0"
         width="40"
         height="480"
         x="901.96344"
         y="-20.94861"
         rx="12"
         transform="rotate(30.779681)" /><rect
         style="opacity:1;fill:#1a1a1a;stroke:none;stroke-width:5.69999981;stroke-miterlimit:4;stroke-dasharray:none;stroke-opacity:1"
         id="rect5078-6-1"
         width="40"
         height="480"
         x="775.01532"
         y="50.509762"
         rx="12"
         transform="rotate(30.779681)" /><rect
         style="opacity:1;fill:#1a1a1a;stroke:none;stroke-width:6.64703655;stroke-miterlimit:4;stroke-dasharray:none;stroke-opacity:1"
         id="rect5078-6-9-0"
         width="41.533333"
         height="628.65289"
         x="691.34662"
         y="-222.11504"
         rx="12.459999"
         transform="matrix(0.63477584,0.77269634,-0.90561121,0.42410888,0,0)" /><rect
         style="opacity:1;fill:#1a1a1a;stroke:none;stroke-width:6.64703655;stroke-miterlimit:4;stroke-dasharray:none;stroke-opacity:1"
         id="rect5078-6-9-1-5"
         width="41.533333"
         height="628.65289"
         x="-427.29874"
         y="738.52991"
         rx="12.459999"
         transform="matrix(-0.9380584,0.34647718,0.56757196,0.8233238,0,0)" /></g></g></svg>